<?xml version="1.0" encoding="UTF-8"?><svg id="Layer_1" xmlns="http://www.w3.org/2000/svg" xmlns:xlink="http://www.w3.org/1999/xlink" viewBox="0 0 48 64"><defs><style>.cls-1{fill:url(#linear-gradient);}</style><linearGradient id="linear-gradient" x1="5.61" y1="15.71" x2="38.07" y2="51.08" gradientUnits="userSpaceOnUse"><stop offset="0" stop-color="#ea4698"/><stop offset=".3" stop-color="#c144b2"/><stop offset=".77" stop-color="#8841d7"/><stop offset="1" stop-color="#7241e6"/></linearGradient></defs><g id="Layer_31"><path class="cls-1" d="M47.1,53.7l-.7-.7c-2.8-2.8-4.4-6.6-4.4-10.6v-14.5c2.3-.3,4.1-2.2,4.3-4.6l.1-.8c.5-5.8-1.6-11.6-5.5-15.9C36.9,2.5,31.2,0,25.4,0h-2.8c-5.8,0-11.5,2.5-15.4,6.7C3.2,11,1.2,16.8,1.7,22.6l.1,.8c.2,2.4,2,4.2,4.3,4.6v14.4c0,4-1.6,7.8-4.4,10.6l-.7,.7c-.7,.6-1,1.4-1,2.2,0,1.3,.7,2.4,1.9,2.9,.4,.2,.8,.2,1.2,.2,.8,0,1.6-.3,2.2-.9l1.7-1.7c3.2-3.2,5-7.5,5-12V28h4V61c0,1.7,1.3,3,3,3s3-1.3,3-3V28h4V61c0,1.7,1.3,3,3,3s3-1.3,3-3V28h4v16.4c0,4.5,1.8,8.8,5,12l1.7,1.7c.6,.6,1.4,.9,2.2,.9,.4,0,.8-.1,1.2-.2,1.2-.5,1.9-1.6,1.9-2.9,0-.8-.3-1.6-.9-2.2Zm-9-34.2c-.2-.5,0-1.1,.4-1.3,.5-.2,1.1,0,1.3,.4,1.2,2.5,1.4,5,.6,7.5h-2.1c1-2.3,.9-4.4-.2-6.6Zm-28.2,0c-1.1,2.2-1.2,4.3-.2,6.5h-2.1c-.8-2.5-.6-5,.6-7.5,.2-.5,.8-.7,1.3-.4,.4,.2,.6,.9,.4,1.4Zm4.3-.1c.3-.5,.9-.6,1.4-.2,.5,.3,.6,.9,.2,1.4-1,1.5-1.1,3.2-.2,5.4h-2.1c-.9-2.5-.6-4.7,.7-6.6Zm6.8,6.6h-1.5c-.9-2.5-.7-4.7,.7-6.6,.3-.5,.9-.6,1.4-.2,.5,.3,.6,.9,.2,1.4-1,1.5-1.1,3.2-.2,5.4,0,0-.6,0-.6,0Zm5.2-5.4c-.3-.5-.2-1.1,.2-1.4,.5-.3,1.1-.2,1.4,.2,1.3,1.9,1.5,4,.7,6.6h-2.1c.9-2.2,.8-4-.2-5.4Zm6,0c-.3-.5-.2-1.1,.2-1.4,.5-.3,1.1-.2,1.4,.2,1.3,1.9,1.5,4,.7,6.6h-2.1c.9-2.2,.8-4-.2-5.4Z"/></g></svg>